<svg id="Ebene_1" data-name="Ebene 1" xmlns="http://www.w3.org/2000/svg" viewBox="0 0 39.68504 39.68679" width="144" height="144"><defs><style>.cls-1{fill:none;}.cls-2{fill:#2d327d;}.cls-3,.cls-4{fill:#fff;}.cls-3{fill-rule:evenodd;}</style></defs><title>p_101_Gleis_1</title><rect class="cls-1" width="39.68504" height="39.68679"/><polygon class="cls-2" points="1.24 1.241 38.445 1.241 38.445 38.446 1.24 38.446 1.24 1.241 1.24 1.241"/><path class="cls-3" d="M2.81623-1.79039A2.346,2.346,0,0,0,.47329.5543V27.03292a2.34549,2.34549,0,0,0,2.34294,2.34224H29.29486a2.34571,2.34571,0,0,0,2.344-2.34224V.5543a2.34624,2.34624,0,0,0-2.344-2.34469ZM1.40553,27.03292V.5543A1.41084,1.41084,0,0,1,2.81623-.85815H29.29486A1.411,1.411,0,0,1,30.70643.5543V27.03292a1.41061,1.41061,0,0,1-1.41157,1.41H2.81623A1.41043,1.41043,0,0,1,1.40553,27.03292Z" transform="translate(3.78733 6.05188)"/><path class="cls-4" d="M17.8026,8.256H15.2339c-.14087,1.60055-1.29624,2.26873-3.3359,2.42081v2.20976h2.80442V24.953H17.8026V8.256Z" transform="translate(3.78733 6.05188)"/></svg>