<svg xmlns="http://www.w3.org/2000/svg" viewBox="0 0 144 144"><title>201_Buslichtzeichen</title><g id="Ebene_2" data-name="Ebene 2"><g id="Ebene_1-2" data-name="Ebene 1"><circle cx="72" cy="72" r="72" style="fill:#fff"/><g id="Ebene_2-2" data-name="Ebene 2-2"><path d="M129.9,51.3a62.6,62.6,0,0,0-115.8.1,2.9,2.9,0,0,0,1.5,3.9h.1a2,2,0,0,0,1.1.2,3.1,3.1,0,0,0,2.8-1.8,56.6,56.6,0,0,1,104.8-.2,2.9,2.9,0,0,0,3.9,1.6,2.8,2.8,0,0,0,1.6-3.8Z" style="fill:#1d1d1b"/><path d="M72,88.4a8.2,8.2,0,1,0-8.2-8.1A8.2,8.2,0,0,0,72,88.4Z" style="fill:#1d1d1b"/><path d="M72.1,102.1a10.2,10.2,0,1,0,10.2,10.1,10.2,10.2,0,0,0-10.2-10.1Zm0,16.4a6.3,6.3,0,0,1-6.2-6.3,6.2,6.2,0,0,1,6.2-6.2,6.3,6.3,0,0,1,0,12.5Z" style="fill:#1d1d1b"/><path d="M72,56.3a8.2,8.2,0,1,0-8.2-8.2h0A8.2,8.2,0,0,0,72,56.3Z" style="fill:#1d1d1b"/><path d="M104.2,72A8.2,8.2,0,0,0,96,80.2a8.2,8.2,0,1,0,8.2-8.2Z" style="fill:#1d1d1b"/><path d="M40,72a8.2,8.2,0,0,0-8.1,8.2A8.1,8.1,0,0,0,40,88.3a8.2,8.2,0,0,0,8.2-8.1h0A8.2,8.2,0,0,0,40,72Z" style="fill:#1d1d1b"/></g></g></g></svg>