<?xml version="1.0" encoding="utf-8"?>
<!-- Generator: Adobe Illustrator 23.0.6, SVG Export Plug-In . SVG Version: 6.00 Build 0)  -->
<svg version="1.1" id="Ebene_1" xmlns="http://www.w3.org/2000/svg" xmlns:xlink="http://www.w3.org/1999/xlink" x="0px" y="0px"
	 viewBox="0 0 144 144" style="enable-background:new 0 0 144 144;" xml:space="preserve">
<style type="text/css">
	.st0{fill:#1D1D1B;}
	.st1{fill:#FFFFFF;}
</style>
<title>Element 85@3020x</title>
<g id="XMLID_1_">
	<g id="Ebene_2-2">
		<path id="XMLID_35_" class="st0" d="M117.6,49.5c0.4-0.9,0.3-1.9-0.3-2.6c-0.5-0.8-1.4-1.3-2.4-1.3h-14V34.5
			c7.7-4.3,13.6-11.2,16.7-19.5c0.4-0.9,0.3-1.9-0.3-2.6c-0.6-0.7-1.4-1.2-2.4-1.1h-14V2.8c0-1.6-1.3-2.8-2.8-2.8H45.8
			c-1.5,0-2.8,1.3-2.8,2.8v8.5H29c-0.9,0-1.8,0.5-2.3,1.3c-0.5,0.7-0.6,1.7-0.3,2.5c3.1,8.3,9,15.2,16.7,19.5v11.1H29
			c-0.9,0-1.8,0.5-2.3,1.3c-0.5,0.8-0.6,1.8-0.3,2.6c3.1,8.2,9,15.1,16.7,19.4V80H29c-0.9,0-1.8,0.5-2.3,1.3
			c-0.5,0.8-0.6,1.8-0.3,2.6c3.1,8.3,9,15.2,16.7,19.5V116c0,1.6,1.3,2.8,2.8,2.8h52.3c1.6,0,2.8-1.3,2.8-2.8v-12.6
			c7.7-4.3,13.6-11.2,16.7-19.4c0.4-0.9,0.3-1.9-0.3-2.6c-0.5-0.8-1.4-1.3-2.4-1.3h-14V68.9C108.7,64.7,114.6,57.8,117.6,49.5z
			 M101,16.9h9.6c-2.3,4.4-5.6,8.2-9.6,11.1V16.9z M101,51.3h9.6c-2.3,4.4-5.6,8.2-9.6,11.1V51.3z M43.1,96.8
			c-4.1-2.8-7.4-6.7-9.6-11.1h9.6V96.8z M43.1,62.4c-4.1-2.8-7.4-6.7-9.6-11.1h9.6V62.4z M43.1,27.9c-4.1-2.8-7.4-6.6-9.7-11h9.7
			V27.9z M95.3,113.1H48.7V5.6h46.6V113.1z M110.6,85.7c-2.2,4.4-5.6,8.3-9.6,11.1V85.7H110.6z"/>
		<path id="XMLID_34_" class="st1" d="M110.6,85.7c-2.2,4.4-5.6,8.3-9.6,11.1V85.7H110.6z"/>
		<path id="XMLID_33_" class="st1" d="M110.6,51.3c-2.3,4.4-5.6,8.2-9.6,11.1V51.3L110.6,51.3z"/>
		<path id="XMLID_32_" class="st1" d="M110.6,16.9c-2.3,4.4-5.6,8.2-9.6,11.1V16.9H110.6z"/>
		<path id="XMLID_24_" class="st1" d="M48.7,5.6v107.5h46.6V5.6H48.7z M71.7,108.6c-5.9,0-10.6-4.8-10.6-10.7
			c0-5.9,4.8-10.6,10.7-10.6c5.9,0,10.6,4.8,10.6,10.6C82.4,103.8,77.6,108.6,71.7,108.6z M84.7,88.5c-0.4,0.3-1,0.5-1.5,0.5
			c-0.7,0-1.4-0.3-1.9-0.8c-4.4-5.3-12.3-6.1-17.6-1.7c-0.5,0.4-0.9,0.8-1.3,1.3c-1,0.8-2.5,0.7-3.3-0.3c-0.7-0.8-0.7-2-0.1-2.8
			c6.3-7.1,17.2-7.7,24.3-1.3c0.6,0.6,1.2,1.2,1.8,1.8C85.8,86.1,85.7,87.6,84.7,88.5C84.7,88.5,84.7,88.5,84.7,88.5z M61.1,62.8
			c0-5.9,4.8-10.7,10.6-10.7c5.9,0,10.7,4.8,10.7,10.6c0,5.9-4.8,10.7-10.6,10.7c0,0,0,0,0,0C65.9,73.4,61.1,68.7,61.1,62.8z
			 M84.7,53.4c-0.4,0.3-1,0.5-1.5,0.5c-0.7,0-1.4-0.3-1.9-0.8c-4.4-5.3-12.3-6-17.6-1.6c-0.4,0.4-0.9,0.8-1.2,1.2
			c-0.9,1-2.4,1-3.3,0.1c-0.9-0.9-1-2.3-0.2-3.3c6.3-7.1,17.2-7.7,24.3-1.3c0.6,0.6,1.2,1.2,1.8,1.8C85.8,51,85.7,52.5,84.7,53.4
			L84.7,53.4z M61.1,27.6c0-5.9,4.8-10.7,10.6-10.7c5.9,0,10.7,4.8,10.7,10.6s-4.8,10.7-10.6,10.7c0,0,0,0,0,0
			C65.9,38.3,61.1,33.5,61.1,27.6z M84.7,18.2c-0.4,0.3-1,0.5-1.5,0.5c-0.7,0-1.4-0.3-1.9-0.8c-4.4-5.3-12.3-6.1-17.6-1.7
			c-0.5,0.4-0.9,0.8-1.3,1.3c-0.9,1-2.4,1-3.3,0.1c-0.9-0.9-1-2.3-0.2-3.3c6.3-7.1,17.2-7.7,24.3-1.3c0.6,0.6,1.2,1.2,1.8,1.8
			C85.7,15.9,85.6,17.3,84.7,18.2L84.7,18.2z"/>
		<path id="XMLID_23_" class="st1" d="M43.1,85.7v11.1c-4.1-2.8-7.4-6.7-9.6-11.1H43.1z"/>
		<path id="XMLID_22_" class="st1" d="M43.1,51.3v11.1c-4.1-2.8-7.4-6.7-9.6-11.1L43.1,51.3z"/>
		<path id="XMLID_21_" class="st1" d="M43.1,16.9V28c-4.1-2.8-7.4-6.6-9.7-11.1H43.1z"/>
		<path id="XMLID_20_" class="st0" d="M84.7,88.5c-0.4,0.3-1,0.5-1.5,0.5c-0.7,0-1.4-0.3-1.9-0.8c-4.4-5.3-12.3-6.1-17.6-1.7
			c-0.5,0.4-0.9,0.8-1.3,1.3c-1,0.8-2.5,0.7-3.3-0.3c-0.7-0.8-0.7-2-0.1-2.8c6.3-7.1,17.2-7.7,24.3-1.3c0.6,0.6,1.2,1.2,1.8,1.8
			C85.8,86.1,85.7,87.6,84.7,88.5C84.7,88.5,84.7,88.5,84.7,88.5z"/>
		<path id="XMLID_17_" class="st0" d="M71.7,87.3c-5.9,0-10.6,4.8-10.6,10.7c0,5.9,4.8,10.6,10.7,10.6c5.9,0,10.6-4.8,10.6-10.6
			C82.4,92.1,77.6,87.3,71.7,87.3z M71.7,103.9c-3.3,0-5.9-2.7-5.9-6c0-3.3,2.7-5.9,6-5.9c3.3,0,5.9,2.7,5.9,5.9
			C77.7,101.2,75,103.9,71.7,103.9C71.8,103.9,71.8,103.9,71.7,103.9z"/>
		<path id="XMLID_16_" class="st1" d="M77.7,98c0,3.3-2.7,6-5.9,6c-3.3,0-6-2.7-6-5.9c0-3.3,2.7-6,5.9-6c0,0,0,0,0,0
			C75,92,77.7,94.7,77.7,98C77.7,97.9,77.7,98,77.7,98z"/>
		<path id="XMLID_15_" class="st0" d="M84.7,53.3c-0.4,0.3-1,0.5-1.5,0.5c-0.7,0-1.4-0.3-1.9-0.8c-4.4-5.3-12.3-6-17.6-1.5
			c-0.4,0.4-0.9,0.8-1.2,1.2c-0.9,1-2.4,1-3.3,0.1c-0.9-0.9-1-2.3-0.2-3.3c6.3-7.1,17.2-7.7,24.3-1.3c0.6,0.6,1.2,1.2,1.8,1.8
			C85.8,51,85.7,52.5,84.7,53.3z"/>
		<path id="XMLID_12_" class="st0" d="M71.7,52.1c-5.9,0-10.6,4.8-10.6,10.7c0,5.9,4.8,10.6,10.7,10.6c5.9,0,10.6-4.8,10.6-10.6
			C82.4,56.9,77.6,52.1,71.7,52.1z M71.7,68.7c-3.3,0-5.9-2.7-5.9-6c0-3.3,2.7-5.9,6-5.9c3.3,0,5.9,2.7,5.9,5.9
			C77.7,66.1,75,68.7,71.7,68.7C71.8,68.7,71.8,68.7,71.7,68.7z"/>
		<path id="XMLID_11_" class="st1" d="M77.7,62.8c0,3.3-2.7,6-5.9,6c-3.3,0-6-2.7-6-5.9c0-3.3,2.7-6,5.9-6c0,0,0,0,0,0
			C75,56.8,77.7,59.5,77.7,62.8C77.7,62.8,77.7,62.8,77.7,62.8z"/>
		<path id="XMLID_10_" class="st0" d="M84.7,18.1c-0.4,0.3-1,0.5-1.5,0.5c-0.7,0-1.4-0.3-1.9-0.8c-4.4-5.3-12.3-6.1-17.6-1.7
			c-0.5,0.4-0.9,0.8-1.3,1.3c-0.9,1-2.4,1-3.3,0.1c-0.9-0.9-1-2.3-0.2-3.3c6.3-7.1,17.2-7.7,24.3-1.3c0.6,0.6,1.2,1.2,1.8,1.8
			C85.8,15.8,85.7,17.3,84.7,18.1C84.7,18.1,84.7,18.1,84.7,18.1z"/>
		<path id="XMLID_7_" class="st0" d="M71.7,16.9c-5.9,0-10.6,4.8-10.6,10.7c0,5.9,4.8,10.6,10.7,10.6c5.9,0,10.6-4.8,10.6-10.6
			C82.4,21.7,77.6,16.9,71.7,16.9z M71.7,33.5c-3.3,0-5.9-2.7-5.9-6c0-3.3,2.7-5.9,6-5.9c3.3,0,5.9,2.7,5.9,5.9
			C77.7,30.9,75.1,33.5,71.7,33.5C71.8,33.6,71.8,33.6,71.7,33.5L71.7,33.5z"/>
		<path id="XMLID_6_" class="st1" d="M77.7,27.6c0,3.3-2.7,6-5.9,6c-3.3,0-6-2.7-6-5.9c0-3.3,2.7-6,5.9-6c0,0,0,0,0,0
			C75,21.7,77.7,24.3,77.7,27.6C77.7,27.6,77.7,27.6,77.7,27.6z"/>
		<path id="XMLID_3_" class="st0" d="M77.1,125.5c-3-0.5-5.8-1.9-7.9-4c-1.1-1.1-2.9-1.2-4-0.1c-0.5,0.5-0.8,1.2-0.9,2v17.8
			c0,1.6,1.3,2.8,2.8,2.8h9.4c1.6,0,2.8-1.3,2.8-2.8v-12.9C79.4,126.9,78.4,125.7,77.1,125.5z M73.8,138.4H70V129
			c1.2,0.6,2.5,1.1,3.8,1.5V138.4z"/>
		<path id="XMLID_2_" class="st1" d="M73.8,130.5v7.9H70V129C71.2,129.6,72.5,130.1,73.8,130.5z"/>
	</g>
</g>
</svg>
