<?xml version="1.0" encoding="utf-8"?>
<!-- Generator: Adobe Illustrator 23.0.6, SVG Export Plug-In . SVG Version: 6.00 Build 0)  -->
<svg version="1.1" id="Ebene_1" xmlns="http://www.w3.org/2000/svg" xmlns:xlink="http://www.w3.org/1999/xlink" x="0px" y="0px"
	 viewBox="0 0 144 144" style="enable-background:new 0 0 144 144;" xml:space="preserve">
<style type="text/css">
	.st0{fill:#E30613;}
	.st1{fill:#FFFFFF;}
</style>
<title>3Element 51@3020x</title>
<g id="XMLID_6_">
	<g id="Ebene_1-2">
		<path id="XMLID_8_" class="st0" d="M97.8,48.9l21.4-37.7L100,0L72,49.2L44,0L25.8,10.6L25.2,11v1l34,59.7l-34.4,60.6L44,143.6
			l21.4-37.7L72,94.4l28,49.2l19.2-11.3L84.8,71.8L97.8,48.9z M95.8,95.9l-15,8.8L72,89.3l-8.7,15.3l-15-8.8l13.7-24L48.3,47.7
			l15-8.8L72,54.2l8.7-15.4l15,8.8l0,0L82,71.8L95.8,95.9z"/>
		<polygon id="XMLID_7_" class="st1" points="95.7,95.9 80.7,104.7 72,89.3 63.3,104.7 48.3,95.9 62,71.8 48.3,47.7 63.3,38.9 
			72,54.2 80.7,38.9 95.7,47.7 95.7,47.7 82,71.8 		"/>
	</g>
</g>
</svg>
