<?xml version="1.0" encoding="UTF-8" standalone="no"?>
<svg
   xmlns:dc="http://purl.org/dc/elements/1.1/"
   xmlns:cc="http://creativecommons.org/ns#"
   xmlns:rdf="http://www.w3.org/1999/02/22-rdf-syntax-ns#"
   xmlns:svg="http://www.w3.org/2000/svg"
   xmlns="http://www.w3.org/2000/svg"
   xmlns:sodipodi="http://sodipodi.sourceforge.net/DTD/sodipodi-0.dtd"
   xmlns:inkscape="http://www.inkscape.org/namespaces/inkscape"
   version="1.1"
   height="144"
   width="144"
   viewBox="0 0 39.68504 39.68504"
   data-name="Ebene 1"
   id="Ebene_1"
   sodipodi:docname="3000_Zug_r.svg"
   inkscape:version="0.92.4 (unknown)">
  <sodipodi:namedview
     pagecolor="#ffffff"
     bordercolor="#666666"
     borderopacity="1"
     objecttolerance="10"
     gridtolerance="10"
     guidetolerance="10"
     inkscape:pageopacity="0"
     inkscape:pageshadow="2"
     inkscape:window-width="1853"
     inkscape:window-height="1145"
     id="namedview17"
     showgrid="false"
     inkscape:zoom="4.5"
     inkscape:cx="23.088006"
     inkscape:cy="82.191418"
     inkscape:window-x="67"
     inkscape:window-y="27"
     inkscape:window-maximized="1"
     inkscape:current-layer="Ebene_1" />
  <metadata
     id="metadata31">
    <rdf:RDF>
      <cc:Work
         rdf:about="">
        <dc:format>image/svg+xml</dc:format>
        <dc:type
           rdf:resource="http://purl.org/dc/dcmitype/StillImage" />
        <dc:title>p_001_Zug</dc:title>
      </cc:Work>
    </rdf:RDF>
  </metadata>
  <defs
     id="defs4">
    <style
       id="style2">.cls-1,.cls-4{fill:#fff;}.cls-2{fill:#2d327d;}.cls-3{fill:none;}.cls-4{fill-rule:evenodd;}</style>
  </defs>
  <title
     id="title6">p_001_Zug</title>
  <polygon
     id="polygon8"
     points="20.659,28.076 20.659,24.915 20.659,24.776 15.542,24.776 15.542,28.076 "
     class="cls-1"
     transform="matrix(-1,0,0,1,39.68504,-3.350206e-6)"
     style="fill:#ffffff" />
  <polygon
     id="polygon10"
     points="1.24,38.445 1.24,1.24 38.446,1.24 38.446,38.445 "
     class="cls-2"
     transform="matrix(-1,0,0,1,39.68504,-3.350206e-6)"
     style="fill:#2d327d" />
  <path
     id="path12"
     d="m 30.647167,28.350298 a 0.46407,0.46407 0 0 0 0.465651,-0.463247 0.44824,0.44824 0 0 0 -0.0051,-0.06668 v 0 l -0.395655,-2.770245 -4.82352,0.0017 -10e-7,3.29839 z"
     class="cls-1"
     inkscape:connector-curvature="0"
     style="fill:#ffffff" />
  <path
     id="path14"
     d="m 19.389267,15.121016 -10.7092887,3e-6 V 14.26055 l 8.7429987,-1e-6 -2.742771,-1.859371 5.162831,-2.9299986 5.13118,2.9299986 h 0.0308 l -2.74382,1.85937 h 5.69938 a 1.39589,1.39589 0 0 1 1.380914,1.198051 l 1.244067,8.708 H 8.6799683 V 19.56273 l 10.7092937,-10e-7 a 0.45378,0.45378 0 0 0 -10e-7,-0.90755 H 8.6799693 v -0.8596 H 19.389265 a 0.45369,0.45369 0 1 0 -8e-6,-0.907368 l -10.7092867,-2e-6 10e-7,-0.859769 10.7092927,-1e-6 a 0.45369032,0.45369032 0 1 0 -5e-6,-0.90738 z m 6.220709,3.976 a 0.465,0.465 0 0 0 0.464831,0.465714 h 2.424071 a 0.46529,0.46529 0 0 0 0.465848,-0.465671 0.43218,0.43218 0 0 0 -0.0052,-0.0658 v 0 l -0.501549,-3.510312 a 0.46537,0.46537 0 0 0 -0.460596,-0.399884 l -1.922521,-7e-6 a 0.466,0.466 0 0 0 -0.464791,0.465683 v 3.510319 z m -4.923617,-4.836473 2.635333,-1.785819 -3.480413,-1.98678 -3.488079,1.979999 2.645471,1.792701 z"
     class="cls-1"
     inkscape:connector-curvature="0"
     style="fill:#ffffff" />
  <path
     id="path16"
     d="m 14.622097,27.307828 a 2.37247,2.37247 0 1 1 2.371897,2.373735 2.37324,2.37324 0 0 1 -2.371897,-2.373735 z"
     class="cls-1"
     inkscape:connector-curvature="0"
     style="fill:#ffffff" />
  <path
     id="path18"
     d="m 20.215618,27.307828 a 2.3716,2.3716 0 1 1 2.371041,2.373728 2.37251,2.37251 0 0 1 -2.371041,-2.373728 z"
     class="cls-1"
     inkscape:connector-curvature="0"
     style="fill:#ffffff" />
  <polygon
     id="polygon20"
     points="31.005,8.681 8.681,8.681 8.681,9.145 31.005,9.145 "
     class="cls-1"
     transform="matrix(-1,0,0,1,39.68504,-3.350206e-6)"
     style="fill:#ffffff" />
  <polygon
     id="polygon22"
     points="8.681,31.003 31.005,31.003 31.005,30.119 8.681,30.119 "
     class="cls-1"
     transform="matrix(-1,0,0,1,39.68504,-3.350206e-6)"
     style="fill:#ffffff" />
  <rect
     id="rect24"
     height="39.68504"
     width="39.68504"
     class="cls-3"
     x="-39.68504"
     y="-6.2176645e-07"
     style="fill:none"
     transform="scale(-1,1)" />
  <path
     id="path26"
     d="m 33.082127,4.2595774 a 2.34561,2.34561 0 0 1 2.342872,2.3457002 l -10e-7,26.4755214 a 2.34538,2.34538 0 0 1 -2.342851,2.344689 l -26.4808087,-4e-5 a 2.34562,2.34562 0 0 1 -2.341292,-2.344686 l -2.8e-5,-26.475493 a 2.34585,2.34585 0 0 1 2.341314,-2.345698 z m 1.410681,28.8212116 0,-26.4755206 A 1.41234,1.41234 0 0 0 33.082145,5.1910697 l -26.4808077,6.6e-6 a 1.40855,1.40855 0 0 0 -1.408237,1.4141768 l 1.8e-5,26.4755349 a 1.40687,1.40687 0 0 0 1.408197,1.411592 l 26.4808117,-2.1e-5 a 1.41065,1.41065 0 0 0 1.410681,-1.41157 z"
     class="cls-4"
     inkscape:connector-curvature="0"
     style="fill:#ffffff;fill-rule:evenodd" />
</svg>
