<?xml version="1.0" encoding="UTF-8" standalone="no"?>
<svg
   xmlns:dc="http://purl.org/dc/elements/1.1/"
   xmlns:cc="http://creativecommons.org/ns#"
   xmlns:rdf="http://www.w3.org/1999/02/22-rdf-syntax-ns#"
   xmlns:svg="http://www.w3.org/2000/svg"
   xmlns="http://www.w3.org/2000/svg"
   version="1.1"
   height="144"
   width="144"
   viewBox="0 0 39.68504 39.68678"
   data-name="Ebene 1"
   id="Ebene_1">
  <metadata
     id="metadata27">
    <rdf:RDF>
      <cc:Work
         rdf:about="">
        <dc:format>image/svg+xml</dc:format>
        <dc:type
           rdf:resource="http://purl.org/dc/dcmitype/StillImage" />
      </cc:Work>
    </rdf:RDF>
  </metadata>
  <defs
     id="defs4">
    <style
       id="style2">.cls-1{fill:none;}.cls-2{fill:#2d327d;}.cls-3,.cls-4{fill:#fff;}.cls-3{fill-rule:evenodd;}</style>
  </defs>
  <title
     id="title6">p_004_Tram_li</title>
  <rect
     id="rect8"
     height="39.68678"
     width="39.68504"
     class="cls-1" />
  <polygon
     id="polygon10"
     points="1.239 1.241 38.445 1.241 38.445 38.446 1.239 38.446 1.239 1.241 1.239 1.241"
     class="cls-2" />
  <path
     id="path12"
     transform="translate(-7.81813 -10.25327)"
     d="M14.42172,14.51391a2.34641,2.34641,0,0,0-2.34312,2.34645V43.33822a2.34569,2.34569,0,0,0,2.34312,2.3431H40.90046a2.34573,2.34573,0,0,0,2.34382-2.3431V16.86036a2.34645,2.34645,0,0,0-2.34382-2.34645ZM13.01015,43.33822V16.86036A1.41122,1.41122,0,0,1,14.42172,15.447H40.90046A1.41067,1.41067,0,0,1,42.312,16.86036V43.33822A1.40991,1.40991,0,0,1,40.90046,44.748H14.42172A1.41046,1.41046,0,0,1,13.01015,43.33822Z"
     class="cls-3" />
  <path
     id="path14"
     transform="translate(-7.81813 -10.25327)"
     d="M28.89364,21.13114a.42891.42891,0,0,0-.30416-.73309.43282.43282,0,0,0-.305.12476L24.199,24.61074H20.36922a1.56143,1.56143,0,0,0-1.49033,1.10234l-2.34645,7.69228a.72829.72829,0,0,0-.0343.217v3.07621a.46553.46553,0,0,0,.465.465H38.82229V31.95791H34.31122a.464.464,0,0,1-.46393-.46656V25.91311a.46386.46386,0,0,1,.46393-.46656h4.51107v-.83581H25.4158l3.47784-3.4796ZM21.15008,33.35407a.46389.46389,0,0,1-.46481.46325H17.93369a.464.464,0,0,1-.4648-.46325.52616.52616,0,0,1,.0189-.13841l2.249-7.36924h0a.70347.70347,0,0,1,.66991-.49227h.0462a.697.697,0,0,1,.69721.69739v7.30253Zm2.256-.14175a.69809.69809,0,0,1-1.39617,0V26.05154a.69809.69809,0,0,1,1.39617,0v7.16078Zm3.09162-7.29921a.46561.46561,0,0,1,.46481-.46656h5.58173a.46561.46561,0,0,1,.46481.46656v5.57824a.46573.46573,0,0,1-.46481.46656H26.96248a.46573.46573,0,0,1-.46481-.46656V25.91311Zm-.83652.13843v7.16078a.69862.69862,0,0,1-1.39723,0V26.05154a.69862.69862,0,0,1,1.39723,0Z"
     class="cls-4" />
  <path
     id="path16"
     transform="translate(-7.81813 -10.25327)"
     d="M27.23006,38.09667h-4.6887a2.52979,2.52979,0,0,0,4.6887,0Z"
     class="cls-4" />
  <path
     id="path18"
     transform="translate(-7.81813 -10.25327)"
     d="M32.809,38.09667H28.122a2.52849,2.52849,0,0,0,4.687,0Z"
     class="cls-4" />
  <polygon
     id="polygon20"
     points="8.68 30.077 31.004 30.077 31.004 31.005 8.68 31.005 8.68 30.077 8.68 30.077"
     class="cls-4" />
  <polygon
     id="polygon22"
     points="8.68 8.684 31.004 8.684 31.004 9.613 8.68 9.613 8.68 8.684 8.68 8.684"
     class="cls-4" />
</svg>
