<?xml version="1.0" encoding="UTF-8" standalone="no"?>
<svg
   xmlns:dc="http://purl.org/dc/elements/1.1/"
   xmlns:cc="http://creativecommons.org/ns#"
   xmlns:rdf="http://www.w3.org/1999/02/22-rdf-syntax-ns#"
   xmlns:svg="http://www.w3.org/2000/svg"
   xmlns="http://www.w3.org/2000/svg"
   version="1.1"
   height="144"
   width="144"
   viewBox="0 0 39.68504 39.68678"
   data-name="Ebene 1"
   id="Ebene_1">
  <metadata
     id="metadata27">
    <rdf:RDF>
      <cc:Work
         rdf:about="">
        <dc:format>image/svg+xml</dc:format>
        <dc:type
           rdf:resource="http://purl.org/dc/dcmitype/StillImage" />
      </cc:Work>
    </rdf:RDF>
  </metadata>
  <defs
     id="defs4">
    <style
       id="style2">.cls-1{fill:none;}.cls-2{fill:#2d327d;}.cls-3,.cls-4{fill:#fff;}.cls-3{fill-rule:evenodd;}</style>
  </defs>
  <title
     id="title6">p_004_Tram_re</title>
  <rect
     id="rect8"
     height="39.68678"
     width="39.68504"
     class="cls-1" />
  <polygon
     id="polygon10"
     points="38.446 1.241 1.24 1.241 1.24 38.446 38.446 38.446 38.446 1.241 38.446 1.241"
     class="cls-2" />
  <path
     id="path12"
     transform="translate(-7.81813 -10.25327)"
     d="M14.42083,14.51391A2.34645,2.34645,0,0,0,12.077,16.86036V43.33822a2.34573,2.34573,0,0,0,2.34382,2.3431H40.89957a2.34569,2.34569,0,0,0,2.34312-2.3431V16.86036a2.34641,2.34641,0,0,0-2.34312-2.34645ZM40.89957,44.748H14.42083a1.4099,1.4099,0,0,1-1.41157-1.40982V16.86036A1.41066,1.41066,0,0,1,14.42083,15.447H40.89957a1.41123,1.41123,0,0,1,1.41158,1.41333V43.33822A1.41047,1.41047,0,0,1,40.89957,44.748Z"
     class="cls-3" />
  <path
     id="path14"
     transform="translate(-7.81813 -10.25327)"
     d="M26.42765,21.13114l3.47785,3.4796H16.499v.83581h4.51107a.46386.46386,0,0,1,.46393.46656v5.57824a.464.464,0,0,1-.46393.46656H16.499v5.20566H38.35817a.46553.46553,0,0,0,.465-.465V33.62237a.728.728,0,0,0-.0343-.217L36.4424,25.71308a1.56143,1.56143,0,0,0-1.49033-1.10234H31.1223l-4.08546-4.08793a.432.432,0,0,0-.73572.30418.42781.42781,0,0,0,.12653.30415Zm7.74356,12.22293V26.05154a.697.697,0,0,1,.69721-.69739h.0462a.70349.70349,0,0,1,.66992.49227h0l2.249,7.36924a.52658.52658,0,0,1,.0189.13841.464.464,0,0,1-.46481.46325H34.636a.46389.46389,0,0,1-.46481-.46325Zm-2.256-.14175V26.05154a.69809.69809,0,0,1,1.39618,0v7.16078a.69809.69809,0,0,1-1.39618,0Zm-3.09161-7.29921v5.57824a.46573.46573,0,0,1-.46481.46656H22.77708a.46573.46573,0,0,1-.46481-.46656V25.91311a.46561.46561,0,0,1,.46481-.46656h5.58174a.46561.46561,0,0,1,.46481.46656Zm.83651.13843a.69862.69862,0,0,1,1.39723,0v7.16078a.69862.69862,0,0,1-1.39723,0V26.05154Z"
     class="cls-4" />
  <path
     id="path16"
     transform="translate(-7.81813 -10.25327)"
     d="M28.09124,38.09667h4.68869a2.52978,2.52978,0,0,1-4.68869,0Z"
     class="cls-4" />
  <path
     id="path18"
     transform="translate(-7.81813 -10.25327)"
     d="M22.5123,38.09667h4.687a2.5285,2.5285,0,0,1-4.687,0Z"
     class="cls-4" />
  <polygon
     id="polygon20"
     points="31.005 30.077 8.681 30.077 8.681 31.005 31.005 31.005 31.005 30.077 31.005 30.077"
     class="cls-4" />
  <polygon
     id="polygon22"
     points="31.005 8.684 8.681 8.684 8.681 9.613 31.005 9.613 31.005 8.684 31.005 8.684"
     class="cls-4" />
</svg>
