<?xml version="1.0" encoding="UTF-8" standalone="no"?>
<svg
   xmlns:dc="http://purl.org/dc/elements/1.1/"
   xmlns:cc="http://creativecommons.org/ns#"
   xmlns:rdf="http://www.w3.org/1999/02/22-rdf-syntax-ns#"
   xmlns:svg="http://www.w3.org/2000/svg"
   xmlns="http://www.w3.org/2000/svg"
   version="1.1"
   height="144"
   width="144"
   viewBox="0 0 39.68504 34.80849"
   data-name="Ebene 1"
   id="Ebene_1">
  <metadata
     id="metadata25">
    <rdf:RDF>
      <cc:Work
         rdf:about="">
        <dc:format>image/svg+xml</dc:format>
        <dc:type
           rdf:resource="http://purl.org/dc/dcmitype/StillImage" />
      </cc:Work>
    </rdf:RDF>
  </metadata>
  <defs
     id="defs4">
    <style
       id="style2">.cls-1{fill:#eb0000;}.cls-2,.cls-3{fill:#fff;}.cls-3{stroke:#000;stroke-linecap:round;stroke-linejoin:round;stroke-width:0;}</style>
  </defs>
  <title
     id="title6">P_Baustelle</title>
  <path
     id="path8"
     transform="translate(-575.02116 -403.77596)"
     d="M575.21562,436.17557l18.24326-31.58789a1.61751,1.61751,0,0,1,1.40163-.81172,1.63458,1.63458,0,0,1,1.40683.78619L614.4861,436.1368a1.63436,1.63436,0,0,1,.01222,1.61648,1.66874,1.66874,0,0,1-1.413.83117H576.65421a1.70272,1.70272,0,0,1-1.40691-.78628,1.67509,1.67509,0,0,1-.03168-1.6226Zm4.26563-.85574,15.37926-26.62407,15.3968,26.62407H579.48125"
     class="cls-1" />
  <path
     id="path10"
     transform="translate(-575.02116 -403.77596)"
     d="M578.3719,435.81368l16.48861-28.30387,16.50009,28.29777s-32.83019.0061-32.9887.0061"
     class="cls-2" />
  <path
     id="path12"
     transform="translate(-575.02116 -403.77596)"
     d="M582.34086,432.84759v.60839h25.03221v-.57056a1.2854,1.2854,0,0,1-1.0204-.81173,5.39,5.39,0,0,0-.55112-1.41306c-.24745-.22192-.6973-.36808-.78-.47547-.21581-.2606-.406-.65327-.62077-.76066-.20342-.10833-.5071-.12681-.60219-.24744-.31073-.29844-.46308-.6911-.64708-.81173-.70967-.43755-.93768-.69729-1.3251-.70967a3.31584,3.31584,0,0,0-1.223.27212c-.19.15227-.37418.79935-.53874,1.07147-.15236.10825-.368.34246-.52035.44985-.25966-.19019-.52568-.30987-.79857-.53178-.3293-.22888-.51949-.55818-.80459-.7739-.634-.46223-1.55932-1.0204-2.26985-1.50816a.24607.24607,0,0,1-.09509-.29843c.55818-1.09.53273-1.68605.774-2.0408a10.12165,10.12165,0,0,1,.72189-.97646,1.95414,1.95414,0,0,0,.35578-.78619,1.85831,1.85831,0,0,0-.05727-.72283,8.3106,8.3106,0,0,0-.40582-.98871c0-.06956.03783-.08189.13293-.08189a.29242.29242,0,0,0,.23506.08189c.17695,0,.21478-.17694.38037-.25974a.62875.62875,0,0,0,.24022.10743c.23508-.09509.412-.36713.74837-.50711.38036-.19018.61457-.405.61457-.74135a1.43058,1.43058,0,0,0-.995-1.35055,1.52723,1.52723,0,0,0-.824-.01234,1.86819,1.86819,0,0,0-.71053.57051,2.73121,2.73121,0,0,0-.17694.57051c-.08271.10743-.228.28528-.368.27295-.08185,0-.177-.15846-.28528-.27295a1.922,1.922,0,0,0-1.318-.368c-.78624.03169-1.69925.07042-2.4599.17785a4.022,4.022,0,0,0-1.03364.27294,1.507,1.507,0,0,0-.53178.79238,10.92439,10.92439,0,0,0-.596,2.26881c-.02549.1717.05727.21572.044.29853a.17264.17264,0,0,1-.12678.15846c-.14527.0061-.17694-.12063-.31077-.12063a.3359.3359,0,0,0-.28528.1391.15262.15262,0,0,0,0,.14617.71507.71507,0,0,0,.324.31692c.0951.06337.03169.15846.0819.228.10829.12064.35479.13912.38032.28529.04489.20248-.14526.3231-.26588.76065a2.6277,2.6277,0,0,0,.02553,1.17275,7.75959,7.75959,0,0,1,.34865,2.37715c-.1083,2.93532-.39357,3.89854-.34865,4.17144.03787.13292.13292.25974.06341.3293-.10833.0889-.44374-.0828-.69115-.0828a5.05356,5.05356,0,0,1-.58374.12062,6.072,6.072,0,0,1-1.07057-.12062.53267.53267,0,0,1-.27294-.23412c-.06956-.12063-.08275-.38037-.24741-.545-.16465-.19018-.38033-.28528-.55731-.457-.19014-.1514-.19014-.48156-.45075-.53177-.36717-.07043-.78537-.2852-.93769-.15227-.31076.3108-.9887.5573-1.0838.96932a2.22686,2.22686,0,0,1-.368.85575,1.13605,1.13605,0,0,1-.50095.36188A5.11863,5.11863,0,0,1,582.34086,432.84759Z" />
  <path
     id="path14"
     transform="translate(-575.02116 -403.77596)"
     d="M591.71561,432.16878a3.37372,3.37372,0,0,0,.45079.13292,1.79165,1.79165,0,0,1,.14526-.4182,1.25763,1.25763,0,0,1,.2791-.38037.332.332,0,0,0-.10124-.272,5.90774,5.90774,0,0,1,.43758-1.141c.2597-.596.6656-1.35056.88043-1.92111a.53929.53929,0,0,0-.07575-.50092c-.38033-.4059-.74832-.85583-1.11549-1.28014,0,.57666.06341,1.15951.03787,1.67366C592.62862,428.4164,592.12152,429.88673,591.71561,432.16878Z"
     class="cls-3" />
  <path
     id="path16"
     transform="translate(-575.02116 -403.77596)"
     d="M593.95984,431.95306c.14.12063.53264.20334.79853.38038.10214.0827.04492.26669.16551.36179a3.88114,3.88114,0,0,0,.85579-.03783,4.31645,4.31645,0,0,0,.98256-.15235,5.66146,5.66146,0,0,0,1.08386-.66557c.044-.21572.044-.44373.06946-.64716a2.06565,2.06565,0,0,0,.17781-.56342c.06964-.19019.48785-.39352.72205-.58371a5.05445,5.05445,0,0,0-.39894-.33549c-.4182-.3557-.54494-.964-1.02039-1.26776-.46309-.29852-.91912-.5961-1.36982-.90682-.038.15846.05106.31072-.044.58276-.32312.641-.64623,1.28719-.96331,1.91493-.26056.58285-.52645,1.15951-.77386,1.74331A.52986.52986,0,0,1,593.95984,431.95306Z"
     class="cls-3" />
  <path
     id="path18"
     transform="translate(-575.02116 -403.77596)"
     d="M595.41168,423.18046a2.57723,2.57723,0,0,0-.90687.76693,1.58035,1.58035,0,0,0-.13911.65232,2.14156,2.14156,0,0,0,.38037.74836c.19019-.84956.11444-.89977.23421-1.29329C595.10077,423.68765,595.38606,423.294,595.41168,423.18046Z"
     class="cls-3" />
  <path
     id="path20"
     transform="translate(-575.02116 -403.77596)"
     d="M591.39251,422.13452a18.63336,18.63336,0,0,1,1.69924-1.6992,3.854,3.854,0,0,0-1.1032.03173A4.041,4.041,0,0,0,591.39251,422.13452Z"
     class="cls-3" />
</svg>
